<svg xmlns="http://www.w3.org/2000/svg" xmlns:xlink="http://www.w3.org/1999/xlink" viewBox="0 0 2603.31 1062.4"><defs><style>.cls-1{fill:#02feff;}.cls-2,.cls-5{fill:#fff;}.cls-3{fill:url(#Degradado_sin_nombre_82);}.cls-4{fill:url(#Degradado_sin_nombre_82-2);}.cls-5{font-size:273px;font-family:Garamond, Garamond;}</style><linearGradient id="Degradado_sin_nombre_82" x1="306.35" y1="359.75" x2="1073.48" y2="359.75" gradientTransform="translate(1366.51 739.19) rotate(-179.46)" gradientUnits="userSpaceOnUse"><stop offset="0" stop-color="#00f5f4"/><stop offset="0.13" stop-color="#02f4f3"/><stop offset="0.19" stop-color="#0af2f2"/><stop offset="0.24" stop-color="#18efee"/><stop offset="0.29" stop-color="#2beaea"/><stop offset="0.33" stop-color="#43e4e3"/><stop offset="0.37" stop-color="#62dddc"/><stop offset="0.4" stop-color="#86d3d3"/><stop offset="0.43" stop-color="#afc9c9"/><stop offset="0.45" stop-color="#c4c4c4"/><stop offset="0.56" stop-color="#c1c4c4"/><stop offset="0.64" stop-color="#b8c6c6"/><stop offset="0.7" stop-color="#a9c8c8"/><stop offset="0.76" stop-color="#94cbcb"/><stop offset="0.82" stop-color="#78cfcf"/><stop offset="0.87" stop-color="#56d4d4"/><stop offset="0.92" stop-color="#2ed9d9"/><stop offset="0.94" stop-color="#1adcdc"/></linearGradient><linearGradient id="Degradado_sin_nombre_82-2" x1="0" y1="696.43" x2="751.92" y2="696.43" gradientTransform="matrix(1, 0, 0, 1, 0, 0)" xlink:href="#Degradado_sin_nombre_82"/></defs><title>Recurso 9logo header</title><g id="Capa_2" data-name="Capa 2"><g id="Capa_1-2" data-name="Capa 1"><path class="cls-1" d="M403.5,577.58a1.49,1.49,0,0,1-.57-1.14,1.48,1.48,0,0,1,1.35-1.5,1.46,1.46,0,0,1,.86.36C422,589.77,440.28,597,457.6,597c26.73,0,51.4-17,65.73-50.19,4.34-10.19,6.7-20.6,6.7-29.87-.22-10.76-2.64-18.89-9-24.3-4-3.35-9.41-5.35-16.25-5.35-6.63,0-14.61,1.85-24,5.92-1.5,2.28-3,4.42-4.64,6.56-13,17.39-20.95,23.59-24.73,23.59-1.71,0-3-1.28-3-3.56,0-6.56,10.4-21.82,28.37-29.44l.64-.29c11.47-19.75,21.45-45.62,21.88-62.73,0-7.56-2.35-10.76-6.41-10.76-2.78,0-6.42,1.56-10.55,4.34-21.53,14.55-33.58,46.05-40.85,73.07-3,30.37-4.85,62.95-5.92,89.18a2.16,2.16,0,0,1-2,2.28c-.93,0-1.78-.71-1.78-2.14v-.07c1.21-58.1,7.41-137,16.32-167.09v-.07c.43-1.5,1.21-2.07,2-2.07,1.64,0,2.85,3.14,2.85,7.63,0,3.49-.93,7.41-3.71,9.34-2.49,16.46-4.56,32.5-6.27,48.33,7.7-23.81,19.24-48.69,38.71-61.38,3.27-2.14,8.05-5,12.26-5,6.2,0,9.26,6.27,9.26,15.54,0,18.89-12.69,46.55-19,58.95a67.83,67.83,0,0,1,22-4.2c20.46,0,29.72,14,29.72,32.79,0,35-32.22,85-77.84,85C441.49,601,423,594.33,403.5,577.58Zm71.35-83.19c-15.61,7.63-23.74,21.17-23.74,25.23a1.23,1.23,0,0,0,.08.57C458.53,517.13,467,507.08,474.85,494.39Z"/><path class="cls-1" d="M591,598a29.24,29.24,0,0,1-3.14-13.91,49.55,49.55,0,0,1,3.07-16.6c6.7-19.18,25.37-42.13,62.87-60,2.14-11.54,3.28-21.88,3.28-29.58a40.88,40.88,0,0,0-.72-8.62A7.09,7.09,0,0,0,655,466h-.07c-2.42.85-5.85,4.2-10.19,10.55-27.81,40.27-48.69,58.59-63.52,62.59a26.78,26.78,0,0,1-6.42.92A17.52,17.52,0,0,1,562,534.74c-4.71-4.64-7.85-12-9.56-21a104.67,104.67,0,0,1-1.71-19.61c0-23,5.92-50.18,16.18-70.71l.15-.29c1-1.42,2.06-2.06,3-2.06,1.14,0,2,.78,2.5,2.21a12.21,12.21,0,0,1,.35,3.06v.79a28,28,0,0,1-9.41,18.82,207.93,207.93,0,0,0-5.63,26.87,158.46,158.46,0,0,0-1.14,19.32c0,19.89,3.56,44.84,19.18,44.84a18,18,0,0,0,4.56-.65c14.33-3.85,34.64-21.81,62-61.44,4.7-6.85,8.55-10.55,11.54-11.62a6.25,6.25,0,0,1,2.14-.43c2,0,3.49,1.21,4.64,3.49,1.21,2.5,1.85,6.42,2,11.34v.78A153.9,153.9,0,0,1,660,504.58a260.69,260.69,0,0,1,27.73-10.19h.29a1.3,1.3,0,0,1,1.35,1.07l.07.43a1.39,1.39,0,0,1-1,1.35A248.13,248.13,0,0,0,659.4,508,309.88,309.88,0,0,1,647,553.06c-11.48,32.07-25,47.54-36,52a18.43,18.43,0,0,1-6.77,1.36C598.52,606.38,593.89,603.24,591,598Zm37.92-18.33c10-17.1,17.82-40.48,22.67-61.8.57-2.28,1.07-4.63,1.5-6.91-35.43,17.39-53.25,39.27-59.67,57.52A50.51,50.51,0,0,0,590.32,585c0,10.84,4.85,17.82,12.2,17.82C609.71,602.81,619.27,596,628.89,579.64Z"/></g><g id="COPIA"><path class="cls-2" d="M595.83,805.08c25.75-68.53,23.43-112.69-1.75-137-33.82-34.81-77.5-25.25-95-2-21.5,22.5-23.37,82.82-15.75,129.32-15.38-51.78-16.34-98.58,9-136.32,26.67-31.41,71.37-34.41,109.34,3.09C631.24,695.21,628.83,746.5,595.83,805.08Z"/><path class="cls-2" d="M619.14,811.83c100.79-102.33,137.12-214.5,150.12-279,5.75-49.5.75-89.25-13-118-16.6-35.59-43.35-56.49-80-63a89.88,89.88,0,0,0-49,11c-28.62,18.38-54.54,31.09-76,34.5-37,5.42-62.87,1.06-77.5-13.25,37.77,18.71,80,12.47,126.84-19.25,50.21-38.3,96.28-36.46,139-2C855.26,466.17,752.6,711.5,619.14,811.83Z"/><path class="cls-2" d="M434.46,781.83c-100.79-102.33-137.13-214.5-150.13-279-5.75-49.5-.75-89.25,13-118,16.61-35.59,43.36-56.49,80-63a89.87,89.87,0,0,1,49,11c28.63,18.38,54.54,31.09,76,34.5,37,5.42,62.88,1.06,77.5-13.25-37.76,18.71-80,12.47-126.83-19.25-50.21-38.3-96.29-36.46-139-2C198.33,436.17,301,681.5,434.46,781.83Z"/><polygon class="cls-3" points="1062.25 515 846.25 746 810.25 711 989.25 520 518.08 69.33 333.75 266 297.75 231 514.56 0 1062.25 515"/><polygon class="cls-4" points="0 547.38 203.71 330.46 241.33 365.33 71.42 545.25 546.42 989.75 715.42 811 751.92 845.33 548.9 1062.4 0 547.38"/><text class="cls-5" transform="translate(1147.26 421.64)">MILENIUM <tspan x="344.05" y="322">DENT</tspan></text></g></g></svg>